<svg id="visual" viewBox="0 0 900 600" width="900" height="600" xmlns="http://www.w3.org/2000/svg" xmlns:xlink="http://www.w3.org/1999/xlink" version="1.1"><rect width="900" height="600" fill="#ddcabb"></rect><g><g transform="translate(664 239)"><path d="M22.6 -0.2C22.6 12 11.3 24 -0.3 24C-11.9 24 -23.8 12 -23.8 -0.2C-23.8 -12.5 -11.9 -24.9 -0.3 -24.9C11.3 -24.9 22.6 -12.5 22.6 -0.2Z" stroke="#f0eeea" fill="none" stroke-width="1"></path></g><g transform="translate(406 428)"><path d="M6.4 0.1C6.4 3.1 3.2 6.3 -0.1 6.3C-3.3 6.3 -6.6 3.1 -6.6 0.1C-6.6 -3 -3.3 -6 -0.1 -6C3.2 -6 6.4 -3 6.4 0.1Z" stroke="#f0eeea" fill="none" stroke-width="1"></path></g><g transform="translate(252 17)"><path d="M6 0.1C6 3 3 6 0.2 6C-2.7 6 -5.3 3 -5.3 0.1C-5.3 -2.9 -2.7 -5.8 0.2 -5.8C3 -5.8 6 -2.9 6 0.1Z" stroke="#f0eeea" fill="none" stroke-width="1"></path></g><g transform="translate(568 195)"><path d="M7.1 -0.1C7.1 3.3 3.5 6.7 0.1 6.7C-3.4 6.7 -6.8 3.3 -6.8 -0.1C-6.8 -3.5 -3.4 -7 0.1 -7C3.5 -7 7.1 -3.5 7.1 -0.1Z" stroke="#f0eeea" fill="none" stroke-width="1"></path></g><g transform="translate(377 71)"><path d="M6.8 0C6.8 3.3 3.4 6.5 -0.1 6.5C-3.5 6.5 -7 3.3 -7 0C-7 -3.3 -3.5 -6.6 -0.1 -6.6C3.4 -6.6 6.8 -3.3 6.8 0Z" stroke="#f0eeea" fill="none" stroke-width="1"></path></g><g transform="translate(767 99)"><path d="M19.6 0C19.6 10.5 9.8 20.9 -0.2 20.9C-10.2 20.9 -20.5 10.5 -20.5 0C-20.5 -10.4 -10.2 -20.8 -0.2 -20.8C9.8 -20.8 19.6 -10.4 19.6 0Z" stroke="#f0eeea" fill="none" stroke-width="1"></path></g><g transform="translate(860 121)"><path d="M14.8 0C14.8 7.4 7.4 14.7 0.3 14.7C-6.8 14.7 -13.5 7.4 -13.5 0C-13.5 -7.3 -6.8 -14.6 0.3 -14.6C7.4 -14.6 14.8 -7.3 14.8 0Z" stroke="#f0eeea" fill="none" stroke-width="1"></path></g><g transform="translate(352 233)"><path d="M11.7 0.2C11.7 6 5.8 12 -0.2 12C-6.3 12 -12.7 6 -12.7 0.2C-12.7 -5.5 -6.3 -11.1 -0.2 -11.1C5.8 -11.1 11.7 -5.5 11.7 0.2Z" stroke="#f0eeea" fill="none" stroke-width="1"></path></g><g transform="translate(145 183)"><path d="M7.1 -0.1C7.1 3.4 3.6 6.8 -0.1 6.8C-3.7 6.8 -7.3 3.4 -7.3 -0.1C-7.3 -3.7 -3.7 -7.3 -0.1 -7.3C3.6 -7.3 7.1 -3.7 7.1 -0.1Z" stroke="#f0eeea" fill="none" stroke-width="1"></path></g><g transform="translate(407 598)"><path d="M5 0C5 2.4 2.5 4.9 -0.1 4.9C-2.6 4.9 -5.3 2.4 -5.3 0C-5.3 -2.5 -2.6 -5 -0.1 -5C2.5 -5 5 -2.5 5 0Z" stroke="#f0eeea" fill="none" stroke-width="1"></path></g><g transform="translate(205 381)"><path d="M8.7 -0.1C8.7 4.2 4.4 8.4 -0.1 8.4C-4.7 8.4 -9.3 4.2 -9.3 -0.1C-9.3 -4.4 -4.7 -8.7 -0.1 -8.7C4.4 -8.7 8.7 -4.4 8.7 -0.1Z" stroke="#f0eeea" fill="none" stroke-width="1"></path></g><g transform="translate(22 327)"><path d="M20.1 -0.5C20.1 9.1 10 18.2 0.3 18.2C-9.4 18.2 -18.8 9.1 -18.8 -0.5C-18.8 -10.1 -9.4 -20.3 0.3 -20.3C10 -20.3 20.1 -10.1 20.1 -0.5Z" stroke="#f0eeea" fill="none" stroke-width="1"></path></g><g transform="translate(460 118)"><path d="M17.7 -0.2C17.7 8.2 8.9 16.4 0 16.4C-8.8 16.4 -17.7 8.2 -17.7 -0.2C-17.7 -8.6 -8.8 -17.3 0 -17.3C8.9 -17.3 17.7 -8.6 17.7 -0.2Z" stroke="#f0eeea" fill="none" stroke-width="1"></path></g><g transform="translate(720 322)"><path d="M13.1 0.1C13.1 6.4 6.6 12.8 -0.1 12.8C-6.9 12.8 -13.7 6.4 -13.7 0.1C-13.7 -6.3 -6.9 -12.5 -0.1 -12.5C6.6 -12.5 13.1 -6.3 13.1 0.1Z" stroke="#f0eeea" fill="none" stroke-width="1"></path></g><g transform="translate(93 485)"><path d="M16.7 -0.3C16.7 8.2 8.3 16.4 -0.3 16.4C-9 16.4 -18.1 8.2 -18.1 -0.3C-18.1 -8.9 -9 -17.8 -0.3 -17.8C8.3 -17.8 16.7 -8.9 16.7 -0.3Z" stroke="#f0eeea" fill="none" stroke-width="1"></path></g><g transform="translate(2 537)"><path d="M19.6 0.2C19.6 9.9 9.8 19.7 -0.1 19.7C-10 19.7 -20 9.9 -20 0.2C-20 -9.4 -10 -18.8 -0.1 -18.8C9.8 -18.8 19.6 -9.4 19.6 0.2Z" stroke="#f0eeea" fill="none" stroke-width="1"></path></g><g transform="translate(678 108)"><path d="M11.6 -0.3C11.6 5.6 5.8 11.2 0.1 11.2C-5.6 11.2 -11.3 5.6 -11.3 -0.3C-11.3 -6.1 -5.6 -12.3 0.1 -12.3C5.8 -12.3 11.6 -6.1 11.6 -0.3Z" stroke="#f0eeea" fill="none" stroke-width="1"></path></g><g transform="translate(116 576)"><path d="M21.8 -0.3C21.8 10.2 10.9 20.5 -0.2 20.5C-11.2 20.5 -22.5 10.2 -22.5 -0.3C-22.5 -10.8 -11.2 -21.6 -0.2 -21.6C10.9 -21.6 21.8 -10.8 21.8 -0.3Z" stroke="#f0eeea" fill="none" stroke-width="1"></path></g><g transform="translate(85 30)"><path d="M14.3 0.2C14.3 7 7.2 14 -0.1 14C-7.3 14 -14.6 7 -14.6 0.2C-14.6 -6.6 -7.3 -13.2 -0.1 -13.2C7.2 -13.2 14.3 -6.6 14.3 0.2Z" stroke="#f0eeea" fill="none" stroke-width="1"></path></g><g transform="translate(529 420)"><path d="M15.3 0C15.3 7.9 7.7 15.9 0.1 15.9C-7.5 15.9 -15 7.9 -15 0C-15 -7.8 -7.5 -15.7 0.1 -15.7C7.7 -15.7 15.3 -7.8 15.3 0Z" stroke="#f0eeea" fill="none" stroke-width="1"></path></g><g transform="translate(38 429)"><path d="M6.3 0C6.3 3.2 3.1 6.4 0.1 6.4C-3 6.4 -5.9 3.2 -5.9 0C-5.9 -3.3 -3 -6.5 0.1 -6.5C3.1 -6.5 6.3 -3.3 6.3 0Z" stroke="#f0eeea" fill="none" stroke-width="1"></path></g><g transform="translate(601 463)"><path d="M10.8 0.1C10.8 5.6 5.4 11.2 0.1 11.2C-5.2 11.2 -10.3 5.6 -10.3 0.1C-10.3 -5.4 -5.2 -10.8 0.1 -10.8C5.4 -10.8 10.8 -5.4 10.8 0.1Z" stroke="#f0eeea" fill="none" stroke-width="1"></path></g><g transform="translate(274 302)"><path d="M11 0.1C11 5.9 5.5 11.8 0 11.8C-5.4 11.8 -10.8 5.9 -10.8 0.1C-10.8 -5.6 -5.4 -11.3 0 -11.3C5.5 -11.3 11 -5.6 11 0.1Z" stroke="#f0eeea" fill="none" stroke-width="1"></path></g><g transform="translate(721 185)"><path d="M15.7 -0.1C15.7 7.3 7.9 14.6 0.2 14.6C-7.5 14.6 -14.9 7.3 -14.9 -0.1C-14.9 -7.5 -7.5 -15 0.2 -15C7.9 -15 15.7 -7.5 15.7 -0.1Z" stroke="#f0eeea" fill="none" stroke-width="1"></path></g><g transform="translate(797 514)"><path d="M19.8 0.2C19.8 9.4 9.9 18.8 0.3 18.8C-9.3 18.8 -18.7 9.4 -18.7 0.2C-18.7 -9 -9.3 -18.1 0.3 -18.1C9.9 -18.1 19.8 -9 19.8 0.2Z" stroke="#f0eeea" fill="none" stroke-width="1"></path></g><g transform="translate(631 567)"><path d="M17.9 0.5C17.9 9.2 8.9 18.4 -0.1 18.4C-9.2 18.4 -18.4 9.2 -18.4 0.5C-18.4 -8.3 -9.2 -16.5 -0.1 -16.5C8.9 -16.5 17.9 -8.3 17.9 0.5Z" stroke="#f0eeea" fill="none" stroke-width="1"></path></g><g transform="translate(50 194)"><path d="M20 0C20 10 10 20 -0.1 20C-10.2 20 -20.4 10 -20.4 0C-20.4 -10 -10.2 -19.9 -0.1 -19.9C10 -19.9 20 -10 20 0Z" stroke="#f0eeea" fill="none" stroke-width="1"></path></g><g transform="translate(563 106)"><path d="M13.3 0.2C13.3 6.5 6.6 13 0.1 13C-6.4 13 -12.8 6.5 -12.8 0.2C-12.8 -6.2 -6.4 -12.3 0.1 -12.3C6.6 -12.3 13.3 -6.2 13.3 0.2Z" stroke="#f0eeea" fill="none" stroke-width="1"></path></g><g transform="translate(886 467)"><path d="M15.8 -0.4C15.8 7.1 7.9 14.3 0 14.3C-8 14.3 -16 7.1 -16 -0.4C-16 -7.9 -8 -15.8 0 -15.8C7.9 -15.8 15.8 -7.9 15.8 -0.4Z" stroke="#f0eeea" fill="none" stroke-width="1"></path></g><g transform="translate(207 268)"><path d="M5.5 0C5.5 3 2.7 5.9 -0.1 5.9C-2.9 5.9 -5.8 3 -5.8 0C-5.8 -3 -2.9 -5.9 -0.1 -5.9C2.7 -5.9 5.5 -3 5.5 0Z" stroke="#f0eeea" fill="none" stroke-width="1"></path></g><g transform="translate(430 211)"><path d="M20.6 0C20.6 10.7 10.3 21.4 0.3 21.4C-9.8 21.4 -19.5 10.7 -19.5 0C-19.5 -10.7 -9.8 -21.4 0.3 -21.4C10.3 -21.4 20.6 -10.7 20.6 0Z" stroke="#f0eeea" fill="none" stroke-width="1"></path></g><g transform="translate(797 415)"><path d="M5.9 0.1C5.9 2.9 2.9 5.8 0 5.8C-3 5.8 -5.9 2.9 -5.9 0.1C-5.9 -2.7 -3 -5.4 0 -5.4C2.9 -5.4 5.9 -2.7 5.9 0.1Z" stroke="#f0eeea" fill="none" stroke-width="1"></path></g><g transform="translate(407 297)"><path d="M17.9 -0.2C17.9 8.5 8.9 17 0.1 17C-8.7 17 -17.3 8.5 -17.3 -0.2C-17.3 -8.9 -8.7 -17.7 0.1 -17.7C8.9 -17.7 17.9 -8.9 17.9 -0.2Z" stroke="#f0eeea" fill="none" stroke-width="1"></path></g><g transform="translate(312 417)"><path d="M19.4 -0.2C19.4 10.4 9.7 20.9 0 20.9C-9.7 20.9 -19.4 10.4 -19.4 -0.2C-19.4 -10.8 -9.7 -21.6 0 -21.6C9.7 -21.6 19.4 -10.8 19.4 -0.2Z" stroke="#f0eeea" fill="none" stroke-width="1"></path></g><g transform="translate(661 8)"><path d="M13.5 0.3C13.5 7.6 6.7 15.1 -0.2 15.1C-7.2 15.1 -14.4 7.6 -14.4 0.3C-14.4 -6.9 -7.2 -13.8 -0.2 -13.8C6.7 -13.8 13.5 -6.9 13.5 0.3Z" stroke="#f0eeea" fill="none" stroke-width="1"></path></g><g transform="translate(534 289)"><path d="M10.6 -0.2C10.6 5.4 5.3 10.8 -0.1 10.8C-5.5 10.8 -11.1 5.4 -11.1 -0.2C-11.1 -5.9 -5.5 -11.8 -0.1 -11.8C5.3 -11.8 10.6 -5.9 10.6 -0.2Z" stroke="#f0eeea" fill="none" stroke-width="1"></path></g><g transform="translate(824 239)"><path d="M8 -0.1C8 4.1 4 8.3 -0.1 8.3C-4.2 8.3 -8.4 4.1 -8.4 -0.1C-8.4 -4.3 -4.2 -8.6 -0.1 -8.6C4 -8.6 8 -4.3 8 -0.1Z" stroke="#f0eeea" fill="none" stroke-width="1"></path></g><g transform="translate(332 576)"><path d="M9.2 0C9.2 4.9 4.6 9.7 0 9.7C-4.6 9.7 -9.3 4.9 -9.3 0C-9.3 -4.9 -4.6 -9.8 0 -9.8C4.6 -9.8 9.2 -4.9 9.2 0Z" stroke="#f0eeea" fill="none" stroke-width="1"></path></g><g transform="translate(202 101)"><path d="M12 -0.2C12 6.1 6 12.3 -0.3 12.3C-6.5 12.3 -13 6.1 -13 -0.2C-13 -6.6 -6.5 -13.2 -0.3 -13.2C6 -13.2 12 -6.6 12 -0.2Z" stroke="#f0eeea" fill="none" stroke-width="1"></path></g><g transform="translate(209 564)"><path d="M14.6 -0.1C14.6 6.7 7.3 13.4 0.3 13.4C-6.7 13.4 -13.4 6.7 -13.4 -0.1C-13.4 -6.9 -6.7 -13.8 0.3 -13.8C7.3 -13.8 14.6 -6.9 14.6 -0.1Z" stroke="#f0eeea" fill="none" stroke-width="1"></path></g><g transform="translate(453 537)"><path d="M10.2 0C10.2 4.8 5.1 9.6 0.2 9.6C-4.7 9.6 -9.5 4.8 -9.5 0C-9.5 -4.9 -4.7 -9.8 0.2 -9.8C5.1 -9.8 10.2 -4.9 10.2 0Z" stroke="#f0eeea" fill="none" stroke-width="1"></path></g><g transform="translate(626 390)"><path d="M21 -0.1C21 10 10.5 20 0.2 20C-10.2 20 -20.4 10 -20.4 -0.1C-20.4 -10.2 -10.2 -20.4 0.2 -20.4C10.5 -20.4 21 -10.2 21 -0.1Z" stroke="#f0eeea" fill="none" stroke-width="1"></path></g><g transform="translate(632 307)"><path d="M17.4 -0.1C17.4 8.8 8.7 17.6 -0.3 17.6C-9.3 17.6 -18.5 8.8 -18.5 -0.1C-18.5 -9 -9.3 -17.9 -0.3 -17.9C8.7 -17.9 17.4 -9 17.4 -0.1Z" stroke="#f0eeea" fill="none" stroke-width="1"></path></g><g transform="translate(711 467)"><path d="M7.1 -0.1C7.1 3.2 3.6 6.5 0 6.5C-3.6 6.5 -7.3 3.2 -7.3 -0.1C-7.3 -3.4 -3.6 -6.7 0 -6.7C3.6 -6.7 7.1 -3.4 7.1 -0.1Z" stroke="#f0eeea" fill="none" stroke-width="1"></path></g><g transform="translate(273 513)"><path d="M19.5 0.2C19.5 10.5 9.8 20.9 -0.6 20.9C-10.9 20.9 -21.9 10.5 -21.9 0.2C-21.9 -10.1 -10.9 -20.2 -0.6 -20.2C9.8 -20.2 19.5 -10.1 19.5 0.2Z" stroke="#f0eeea" fill="none" stroke-width="1"></path></g><g transform="translate(133 418)"><path d="M8.1 0C8.1 4.1 4 8.1 0 8.1C-4 8.1 -8 4.1 -8 0C-8 -4.1 -4 -8.3 0 -8.3C4 -8.3 8.1 -4.1 8.1 0Z" stroke="#f0eeea" fill="none" stroke-width="1"></path></g><g transform="translate(4 43)"><path d="M18.3 0.2C18.3 8.8 9.2 17.5 0.1 17.5C-8.9 17.5 -17.9 8.8 -17.9 0.2C-17.9 -8.4 -8.9 -16.8 0.1 -16.8C9.2 -16.8 18.3 -8.4 18.3 0.2Z" stroke="#f0eeea" fill="none" stroke-width="1"></path></g><g transform="translate(459 371)"><path d="M9.4 -0.1C9.4 5 4.7 10 -0.3 10C-5.2 10 -10.5 5 -10.5 -0.1C-10.5 -5.3 -5.2 -10.6 -0.3 -10.6C4.7 -10.6 9.4 -5.3 9.4 -0.1Z" stroke="#f0eeea" fill="none" stroke-width="1"></path></g><g transform="translate(799 592)"><path d="M19.8 -0.1C19.8 9.1 9.9 18.2 -0.1 18.2C-10.1 18.2 -20.3 9.1 -20.3 -0.1C-20.3 -9.3 -10.1 -18.6 -0.1 -18.6C9.9 -18.6 19.8 -9.3 19.8 -0.1Z" stroke="#f0eeea" fill="none" stroke-width="1"></path></g><g transform="translate(889 23)"><path d="M5.6 0.1C5.6 2.9 2.8 5.8 -0.1 5.8C-3 5.8 -5.9 2.9 -5.9 0.1C-5.9 -2.7 -3 -5.5 -0.1 -5.5C2.8 -5.5 5.6 -2.7 5.6 0.1Z" stroke="#f0eeea" fill="none" stroke-width="1"></path></g><g transform="translate(883 575)"><path d="M20.7 0.1C20.7 9.8 10.3 19.6 -0.1 19.6C-10.6 19.6 -21.1 9.8 -21.1 0.1C-21.1 -9.7 -10.6 -19.4 -0.1 -19.4C10.3 -19.4 20.7 -9.7 20.7 0.1Z" stroke="#f0eeea" fill="none" stroke-width="1"></path></g><g transform="translate(515 591)"><path d="M15.4 -0.3C15.4 7.8 7.7 15.7 -0.2 15.7C-8.1 15.7 -16.1 7.8 -16.1 -0.3C-16.1 -8.5 -8.1 -17 -0.2 -17C7.7 -17 15.4 -8.5 15.4 -0.3Z" stroke="#f0eeea" fill="none" stroke-width="1"></path></g><g transform="translate(277 151)"><path d="M9.9 0.2C9.9 5.3 5 10.6 -0.2 10.6C-5.3 10.6 -10.6 5.3 -10.6 0.2C-10.6 -4.9 -5.3 -9.8 -0.2 -9.8C5 -9.8 9.9 -4.9 9.9 0.2Z" stroke="#f0eeea" fill="none" stroke-width="1"></path></g><g transform="translate(161 12)"><path d="M16.4 -0.3C16.4 8.4 8.2 16.7 -0.4 16.7C-9 16.7 -18.1 8.4 -18.1 -0.3C-18.1 -9.1 -9 -18.1 -0.4 -18.1C8.2 -18.1 16.4 -9.1 16.4 -0.3Z" stroke="#f0eeea" fill="none" stroke-width="1"></path></g><g transform="translate(828 315)"><path d="M21.2 0.6C21.2 10.9 10.6 21.8 0 21.8C-10.6 21.8 -21.1 10.9 -21.1 0.6C-21.1 -9.8 -10.6 -19.5 0 -19.5C10.6 -19.5 21.2 -9.8 21.2 0.6Z" stroke="#f0eeea" fill="none" stroke-width="1"></path></g><g transform="translate(713 569)"><path d="M8.2 0.1C8.2 4.3 4.1 8.6 0 8.6C-4.1 8.6 -8.1 4.3 -8.1 0.1C-8.1 -4.2 -4.1 -8.4 0 -8.4C4.1 -8.4 8.2 -4.2 8.2 0.1Z" stroke="#f0eeea" fill="none" stroke-width="1"></path></g><g transform="translate(455 22)"><path d="M4.8 0C4.8 2.5 2.4 5 -0.1 5C-2.6 5 -5.1 2.5 -5.1 0C-5.1 -2.4 -2.6 -4.8 -0.1 -4.8C2.4 -4.8 4.8 -2.4 4.8 0Z" stroke="#f0eeea" fill="none" stroke-width="1"></path></g><g transform="translate(115 266)"><path d="M15.2 0.4C15.2 8.6 7.6 17.3 -0.1 17.3C-7.8 17.3 -15.7 8.6 -15.7 0.4C-15.7 -7.8 -7.8 -15.6 -0.1 -15.6C7.6 -15.6 15.2 -7.8 15.2 0.4Z" stroke="#f0eeea" fill="none" stroke-width="1"></path></g><g transform="translate(179 480)"><path d="M4 0.1C4 2 2 4 0.1 4C-1.8 4 -3.6 2 -3.6 0.1C-3.6 -1.9 -1.8 -3.7 0.1 -3.7C2 -3.7 4 -1.9 4 0.1Z" stroke="#f0eeea" fill="none" stroke-width="1"></path></g><g transform="translate(760 13)"><path d="M7.9 0C7.9 3.8 4 7.7 0 7.7C-3.9 7.7 -7.8 3.8 -7.8 0C-7.8 -3.8 -3.9 -7.6 0 -7.6C4 -7.6 7.9 -3.8 7.9 0Z" stroke="#f0eeea" fill="none" stroke-width="1"></path></g><g transform="translate(894 197)"><path d="M12.6 0.2C12.6 6 6.3 11.9 0.2 11.9C-5.8 11.9 -11.7 6 -11.7 0.2C-11.7 -5.6 -5.8 -11.2 0.2 -11.2C6.3 -11.2 12.6 -5.6 12.6 0.2Z" stroke="#f0eeea" fill="none" stroke-width="1"></path></g><g transform="translate(560 30)"><path d="M11.1 -0.1C11.1 5.6 5.6 11.2 0.1 11.2C-5.3 11.2 -10.6 5.6 -10.6 -0.1C-10.6 -5.8 -5.3 -11.7 0.1 -11.7C5.6 -11.7 11.1 -5.8 11.1 -0.1Z" stroke="#f0eeea" fill="none" stroke-width="1"></path></g><g transform="translate(62 103)"><path d="M2.6 0C2.6 1.2 1.3 2.5 0 2.5C-1.3 2.5 -2.6 1.2 -2.6 0C-2.6 -1.3 -1.3 -2.6 0 -2.6C1.3 -2.6 2.6 -1.3 2.6 0Z" stroke="#f0eeea" fill="none" stroke-width="1"></path></g><g transform="translate(884 367)"><path d="M10.5 -0.3C10.5 5 5.3 10.1 0.1 10.1C-5 10.1 -10 5 -10 -0.3C-10 -5.6 -5 -11.2 0.1 -11.2C5.3 -11.2 10.5 -5.6 10.5 -0.3Z" stroke="#f0eeea" fill="none" stroke-width="1"></path></g><g transform="translate(303 78)"><path d="M11.1 -0.2C11.1 5.6 5.6 11.1 -0.1 11.1C-5.7 11.1 -11.3 5.6 -11.3 -0.2C-11.3 -5.9 -5.7 -11.9 -0.1 -11.9C5.6 -11.9 11.1 -5.9 11.1 -0.2Z" stroke="#f0eeea" fill="none" stroke-width="1"></path></g><g transform="translate(354 154)"><path d="M15.5 0.4C15.5 8.3 7.7 16.5 0 16.5C-7.7 16.5 -15.4 8.3 -15.4 0.4C-15.4 -7.6 -7.7 -15.1 0 -15.1C7.7 -15.1 15.5 -7.6 15.5 0.4Z" stroke="#f0eeea" fill="none" stroke-width="1"></path></g><g transform="translate(546 522)"><path d="M4.3 0C4.3 2.1 2.2 4.3 -0.1 4.3C-2.3 4.3 -4.5 2.1 -4.5 0C-4.5 -2.2 -2.3 -4.4 -0.1 -4.4C2.2 -4.4 4.3 -2.2 4.3 0Z" stroke="#f0eeea" fill="none" stroke-width="1"></path></g><g transform="translate(349 350)"><path d="M8.4 0.1C8.4 4.5 4.2 9.1 0 9.1C-4.2 9.1 -8.4 4.5 -8.4 0.1C-8.4 -4.3 -4.2 -8.6 0 -8.6C4.2 -8.6 8.4 -4.3 8.4 0.1Z" stroke="#f0eeea" fill="none" stroke-width="1"></path></g><g transform="translate(105 344)"><path d="M14.8 0.1C14.8 8.2 7.4 16.5 -0.1 16.5C-7.7 16.5 -15.4 8.2 -15.4 0.1C-15.4 -8 -7.7 -16.1 -0.1 -16.1C7.4 -16.1 14.8 -8 14.8 0.1Z" stroke="#f0eeea" fill="none" stroke-width="1"></path></g><g transform="translate(380 498)"><path d="M10.6 0.2C10.6 6 5.3 12 -0.3 12C-5.8 12 -11.7 6 -11.7 0.2C-11.7 -5.6 -5.8 -11.1 -0.3 -11.1C5.3 -11.1 10.6 -5.6 10.6 0.2Z" stroke="#f0eeea" fill="none" stroke-width="1"></path></g><g transform="translate(338 3)"><path d="M5.6 0C5.6 2.7 2.8 5.5 0.1 5.5C-2.7 5.5 -5.3 2.7 -5.3 0C-5.3 -2.7 -2.7 -5.5 0.1 -5.5C2.8 -5.5 5.6 -2.7 5.6 0Z" stroke="#f0eeea" fill="none" stroke-width="1"></path></g></g></svg>